<svg width="150" height="37" viewBox="0 0 150 37" fill="none" xmlns="http://www.w3.org/2000/svg">
<path fill="white" d="M89.0376 14.2846C91.3634 14.2846 93.5665 15.7076 94.0317 18.7824H83.6717C84.1057 16.0848 86.122 14.2846 89.0376 14.2846ZM93.7021 23.3334C92.9109 24.5659 91.3817 25.5164 89.2866 25.5164C86.4022 25.5164 84.1991 23.9341 83.6717 21.1431H96.6707C96.733 20.742 96.7659 20.3391 96.7659 19.9325C96.7659 15.5904 93.7295 11.7427 89.0412 11.7427C84.3529 11.7427 80.9136 15.3102 80.9136 19.9014C80.9136 24.4926 84.2339 28.0601 89.2262 28.0601C92.3285 28.0601 94.6855 26.6628 96.0499 24.5494L93.7002 23.3315L93.7021 23.3334Z" />
<path fill="white" d="M79.6354 5.01074H76.9378V27.6574H79.6354V5.01074Z" />
<path fill="white" d="M111.779 18.1325V27.6556H109.08V18.2882C109.08 15.7444 107.622 14.3178 105.234 14.3178C102.846 14.3178 100.736 15.7756 100.736 19.4365V27.6575H98.0369V12.1495H100.736V14.3837C101.885 12.5542 103.59 11.7466 105.765 11.7466C109.395 11.7466 111.783 14.1658 111.783 18.138" />
<path fill="white" d="M126.661 19.8997C126.661 16.7351 124.273 14.347 121.14 14.347C118.006 14.347 115.649 16.7351 115.649 19.8997C115.649 23.0643 118.037 25.4524 121.14 25.4524C124.242 25.4524 126.661 23.0643 126.661 19.8997ZM129.359 5.01074V27.6574H126.661V24.9891C125.419 26.8864 123.436 28.0621 120.797 28.0621C116.484 28.0621 112.95 24.4946 112.95 19.9034C112.95 15.3122 116.486 11.7447 120.797 11.7447C123.434 11.7447 125.419 12.9222 126.661 14.8159V5.0144H129.359V5.01074Z" />
<path fill="white" d="M134.234 5.01074H131.536V27.6574H134.234V5.01074Z" />
<path fill="white" d="M72.1268 19.8996C72.1268 16.735 69.7387 14.3469 66.6052 14.3469C63.4717 14.3469 61.1148 16.735 61.1148 19.8996C61.1148 23.0642 63.5029 25.4523 66.6052 25.4523C69.7075 25.4523 72.1268 23.0642 72.1268 19.8996ZM74.8262 12.1474V27.6554H72.1268V24.9871C70.8851 26.8844 68.9017 28.0601 66.2646 28.0601C61.9517 28.0601 58.4153 24.4926 58.4153 19.9014C58.4153 15.3102 61.9517 11.7427 66.2646 11.7427C68.9017 11.7427 70.8869 12.9202 72.1268 14.8139V12.1492H74.8262V12.1474Z" />
<path fill="white" d="M54.4139 24.6702C50.0625 26.2764 45.2314 24.0494 43.6253 19.6981C42.0192 15.3468 44.2461 10.5156 48.5974 8.90953C51.3976 7.87664 54.5366 8.40591 56.8422 10.3032C57.3166 10.6951 57.7451 11.1383 58.1205 11.6236L60.4555 9.91495C56.6609 4.95562 49.5662 4.01063 44.6051 7.80339C39.6457 11.598 38.7008 18.6927 42.4935 23.6538C46.2881 28.6132 53.3828 29.5582 58.344 25.7654C58.3604 25.7526 58.3769 25.7398 58.3934 25.7269L56.8386 23.2693C56.1134 23.8681 55.2929 24.3406 54.4102 24.6684" />
<path fill="white" d="M147.26 12.1473V20.9507C147.26 23.7966 145.605 25.6005 143.077 25.6005C140.55 25.6005 138.721 23.7985 138.721 20.9507V12.1473H135.99V20.687C135.99 25.161 138.779 28.0674 143.077 28.0674C146.797 28.0674 147.378 25.7141 147.378 25.6555V28.8219C147.378 31.959 146.011 33.7318 143.165 33.7318C141.061 33.7428 139.276 32.1916 138.99 30.1075L136.549 30.9609C137.268 34.0358 140.012 36.206 143.169 36.2005C147.584 36.2005 150 33.2941 150 28.8201V12.1455H147.26V12.1473Z" />
<path fill="white" d="M21.9712 21.1818C20.9346 22.103 19.6398 23.2476 17.2902 23.2476H15.8855C14.186 23.2476 12.6404 22.6304 11.5342 21.5096C10.4537 20.4163 9.85853 18.9182 9.85853 17.2938V15.3727C9.85853 13.7483 10.4537 12.2502 11.5342 11.1569C12.6404 10.038 14.186 9.42079 15.8855 9.42079H17.2902C19.6417 9.42079 20.9328 10.5654 21.9712 11.4847C23.048 12.4334 23.9765 13.263 26.4543 13.263C26.8316 13.263 27.2089 13.2319 27.5825 13.1733L27.5733 13.1513C27.425 12.7832 27.251 12.4261 27.0532 12.0818L25.3976 9.21385C23.8776 6.58218 21.0701 4.96143 18.0319 4.96143H14.719C11.6807 4.96143 8.87142 6.58218 7.35322 9.21385L5.69767 12.0818C4.17947 14.7134 4.17947 17.9549 5.69767 20.5866L7.35322 23.4545C8.87326 26.0862 11.6807 27.707 14.719 27.707H18.0319C21.0701 27.707 23.8794 26.0862 25.3976 23.4545L27.0532 20.5903C27.251 20.246 27.425 19.8889 27.5733 19.5208L27.5825 19.5006C27.2089 19.4384 26.8316 19.4072 26.4543 19.4054C23.9765 19.4054 23.048 20.2295 21.9712 21.1836" />
<path fill="white" d="M17.292 11.1606H15.8873C13.3015 11.1606 11.602 13.0085 11.602 15.3728V17.2939C11.602 19.6582 13.3015 21.506 15.8873 21.506H17.292C21.061 21.506 20.7643 17.6638 26.4561 17.6638C26.9946 17.6638 27.533 17.7133 28.0641 17.8122C28.2362 16.8342 28.2362 15.8343 28.0641 14.8563C27.5348 14.9552 26.9964 15.0047 26.4561 15.0047C20.7643 15.0047 21.061 11.1625 17.292 11.1625" />
<path fill="white" d="M31.3313 19.215C30.3625 18.5044 29.2454 18.0246 28.0623 17.8103V17.8396C27.9598 18.4055 27.8023 18.9604 27.588 19.4952C28.5641 19.6472 29.4908 20.0281 30.2893 20.6087C30.2893 20.616 30.2838 20.6252 30.2819 20.6343C27.9067 28.3224 19.7498 32.6316 12.0617 30.2563C4.37363 27.881 0.0644333 19.7241 2.43971 12.0361C4.81499 4.348 12.9719 0.0387957 20.6599 2.41407C25.2603 3.83521 28.8608 7.43567 30.2819 12.0361C30.2819 12.0452 30.2874 12.0544 30.2893 12.0617C29.4889 12.6422 28.5641 13.0232 27.588 13.1733C27.8023 13.7081 27.9598 14.263 28.0623 14.8307C28.0623 14.8399 28.0623 14.849 28.0623 14.8582C29.2435 14.6439 30.3625 14.1641 31.3313 13.4535C32.2635 12.7631 32.0822 11.9848 31.9411 11.5233C29.2838 2.90488 20.1417 -1.92809 11.5233 0.729218C2.90488 3.38653 -1.92809 12.5287 0.729218 21.1471C3.38653 29.7655 12.5287 34.5985 21.1471 31.9412C26.3097 30.3497 30.3497 26.3079 31.9411 21.1471C32.0822 20.6856 32.2635 19.9073 31.3313 19.2168" />
<path fill="white" d="M27.5826 13.1717C27.209 13.2339 26.8317 13.2651 26.4544 13.2669C23.9766 13.2669 23.0481 12.4428 21.9731 11.4886C20.9347 10.5675 19.6436 9.42285 17.2921 9.42285H15.8875C14.188 9.42285 12.6423 10.04 11.5361 11.1608C10.4556 12.2541 9.86044 13.7522 9.86044 15.3766V17.2977C9.86044 18.9221 10.4556 20.4202 11.5361 21.5135C12.6423 22.6325 14.1861 23.2496 15.8875 23.2496H17.2921C19.6436 23.2496 20.9347 22.105 21.9731 21.1857C23.0481 20.2371 23.9784 19.4074 26.4544 19.4074C26.8317 19.4074 27.209 19.4386 27.5826 19.4972C27.7968 18.9624 27.9561 18.4075 28.0569 17.8416C28.0569 17.8325 28.0569 17.8233 28.0569 17.8123C27.5276 17.7134 26.9892 17.664 26.4489 17.6658C20.7571 17.6658 21.0537 21.5099 17.2848 21.5099H15.8801C13.2942 21.5099 11.5947 19.662 11.5947 17.2977V15.373C11.5947 13.0087 13.2942 11.1608 15.8801 11.1608H17.2848C21.0537 11.1608 20.7571 15.003 26.4489 15.003C26.9874 15.003 27.5258 14.9554 28.0569 14.8565V14.829C27.9543 14.2613 27.7968 13.7064 27.5826 13.1717Z" fill="#FF4157"/>
<path fill="white" d="M27.5826 13.1717C27.209 13.2339 26.8317 13.2651 26.4544 13.2669C23.9766 13.2669 23.0481 12.4428 21.9731 11.4886C20.9347 10.5675 19.6436 9.42285 17.2921 9.42285H15.8875C14.188 9.42285 12.6423 10.04 11.5361 11.1608C10.4556 12.2541 9.86044 13.7522 9.86044 15.3766V17.2977C9.86044 18.9221 10.4556 20.4202 11.5361 21.5135C12.6423 22.6325 14.1861 23.2496 15.8875 23.2496H17.2921C19.6436 23.2496 20.9347 22.105 21.9731 21.1857C23.0481 20.2371 23.9784 19.4074 26.4544 19.4074C26.8317 19.4074 27.209 19.4386 27.5826 19.4972C27.7968 18.9624 27.9561 18.4075 28.0569 17.8416C28.0569 17.8325 28.0569 17.8233 28.0569 17.8123C27.5276 17.7134 26.9892 17.664 26.4489 17.6658C20.7571 17.6658 21.0537 21.5099 17.2848 21.5099H15.8801C13.2942 21.5099 11.5947 19.662 11.5947 17.2977V15.373C11.5947 13.0087 13.2942 11.1608 15.8801 11.1608H17.2848C21.0537 11.1608 20.7571 15.003 26.4489 15.003C26.9874 15.003 27.5258 14.9554 28.0569 14.8565V14.829C27.9543 14.2613 27.7968 13.7064 27.5826 13.1717Z" fill="#FF4157"/>
</svg>
