<svg width="40" height="65" viewBox="0 0 40 65" fill="none" xmlns="http://www.w3.org/2000/svg">
<path fill="#132429" d="M36.0437 47.318L3.64049 56.2871C3.36607 56.3634 3.17532 56.6201 3.17532 56.9136V64.3515C3.17532 64.7778 3.56667 65.0879 3.96533 64.9775L36.3686 56.0084C36.6428 55.9325 36.8337 55.6754 36.8337 55.3823V47.944C36.8337 47.518 36.4426 47.2077 36.0437 47.318Z" />
<path fill="#132429" d="M20 37.6217C13.5297 37.6217 8.28487 32.39 8.28487 25.9369C8.28487 19.4834 13.5297 14.2519 20 14.2519C26.47 14.2519 31.715 19.4834 31.715 25.9369C31.715 32.39 26.47 37.6217 20 37.6217ZM34.5636 12.2662C35.906 10.8837 37.3886 8.81888 38.1593 5.98853C38.4897 4.77518 38.6921 3.42428 38.6921 1.92184V0.63144C38.6921 0.282773 38.4085 -0.000244141 38.0588 -0.000244141H32.0554C31.7904 -0.000244141 31.5513 0.164159 31.4621 0.412787C31.4549 0.4332 31.4466 0.451773 31.4392 0.472002C29.4727 5.8552 24.5344 5.98853 22.5251 5.98853H20C8.95433 5.98853 -0.000137329 14.9196 -0.000137329 25.9369C-0.000137329 36.9539 8.95433 45.8851 20 45.8851C31.0456 45.8851 40 36.9539 40 25.9369C40 20.6443 37.9327 15.834 34.5608 12.2631C34.5608 12.2631 34.5627 12.2651 34.5636 12.2662Z" />
</svg>
