<svg width="182" height="17" viewBox="0 0 182 17" fill="none" xmlns="http://www.w3.org/2000/svg">
<path fill="#132429" d="M7.7176 5.51352C8.76783 5.51352 8.97469 6.35079 8.97469 7.03008C8.97469 8.7678 7.49482 11.5166 5.87174 11.5166C4.94881 11.5166 4.85333 10.7425 4.85333 10.7425L6.52415 5.82947C6.52415 5.82947 7.14474 5.51352 7.7176 5.51352ZM7.28796 2.84375C6.52415 2.84375 6.12634 3.30188 5.87174 4.06015L5.36254 5.60831C4.08953 6.22441 3.19843 6.9037 3.19843 6.9037L3.34164 7.28284C3.34164 7.28284 4.23274 6.66674 5.15567 6.256L2.18002 14.4391C1.78221 15.5449 1.32074 16.082 0.365989 16.3664L0 16.477V16.8719H4.66238V16.477L3.89858 16.3506C3.2939 16.2558 3.10295 16.0662 3.10295 15.6871C3.10295 15.3869 3.21434 14.9604 3.34164 14.6129L4.42369 11.7219C4.56691 11.9115 4.99655 12.1011 5.55349 12.1011C8.06767 12.1011 10.2636 9.03636 10.2636 6.8721C10.2636 5.75048 9.53163 4.91322 8.17906 4.91322C7.30387 4.91322 6.76284 5.18178 6.76284 5.18178C6.76284 5.18178 7.31978 3.52304 7.82898 2.95433C7.66986 2.89114 7.54256 2.84375 7.28796 2.84375Z" />
<path fill="#132429" d="M12.8715 12.1007C15.3379 12.1007 17.2315 9.036 17.2315 6.69797C17.2315 5.292 16.4996 4.48633 15.3698 4.48633C12.9192 4.48633 11.0256 7.56683 11.0256 9.90486C11.0256 11.295 11.7576 12.1007 12.8715 12.1007ZM13.333 11.5162C12.6646 11.5162 12.3305 10.8843 12.3305 9.73109C12.3305 7.94597 13.4762 5.08663 14.9242 5.08663C15.5925 5.08663 15.9267 5.70273 15.9267 6.85595C15.9267 8.64106 14.781 11.5162 13.333 11.5162Z" />
<path fill="#132429" d="M23.8812 4.48633C22.5127 4.48633 21.8603 6.38202 21.7648 6.99813L22.0194 7.02972C22.2422 6.39782 22.6241 5.52896 23.1015 5.52896C23.2606 5.52896 23.3084 5.65534 23.3084 5.84491C23.3084 8.15134 21.5739 10.7895 20.2213 10.8211C20.2213 10.8211 20.635 6.69797 20.635 5.48157C20.635 4.97605 20.5237 4.48633 19.9667 4.48633C18.5982 4.48633 17.9458 6.38202 17.8503 6.99813L18.1049 7.02972C18.3277 6.39782 18.7096 5.52896 19.187 5.52896C19.3461 5.52896 19.3939 5.65534 19.3939 5.84491C19.3461 7.36147 19.0597 11.9269 19.0597 11.9269L19.2347 12.0849C20.9215 11.5004 22.3218 10.2208 23.1492 8.72005C23.0538 10.2208 22.9742 11.9269 22.9742 11.9269L23.1492 12.0849C26.5545 10.8211 28.6391 7.36147 28.6391 5.59215C28.6391 4.97605 28.2572 4.50213 27.6207 4.50213C27.1433 4.50213 26.7296 4.84967 26.6341 5.41838C27.1274 5.49737 27.3342 5.93969 27.3342 6.44521C27.3342 8.24612 25.3452 10.8211 24.1358 10.8211C24.1358 10.8211 24.5495 6.69797 24.5495 5.48157C24.5495 4.97605 24.4381 4.48633 23.8812 4.48633Z" />
<path fill="#132429" d="M33.3475 5.68694C33.3475 7.04552 31.2947 7.72481 30.2127 8.04076C30.5469 7.10871 31.4698 5.11823 32.8064 5.11823C33.1406 5.11823 33.3475 5.32359 33.3475 5.68694ZM34.5727 5.57635C34.5727 5.05504 34.2545 4.48633 33.3475 4.48633C30.3877 4.48633 28.5419 7.93018 28.5419 10.1892C28.5419 11.3898 29.2102 12.1007 30.4832 12.1007C32.2495 12.1007 33.3475 10.2524 33.5702 9.85747L33.3316 9.68369C32.9497 10.2366 31.9472 11.2003 30.9447 11.2003C30.1172 11.2003 29.8467 10.5999 29.8467 10.0154C29.8467 9.46253 29.9263 9.0044 30.0854 8.46729C33.061 7.69321 34.5727 6.80856 34.5727 5.57635Z" />
<path fill="#132429" d="M35.2234 11.09C35.1757 11.248 35.1757 11.3112 35.1757 11.4533C35.1757 11.8009 35.3825 12.0852 35.7485 12.0852C36.1304 12.0852 36.3214 11.9746 36.3214 11.9746C36.3214 10.3949 38.4855 5.65566 40.0131 5.65566C40.4905 5.65566 40.5859 5.97161 40.5859 6.14538C40.5859 6.25596 40.5541 6.35075 40.5541 6.35075C40.5541 6.35075 40.6018 6.36654 40.6655 6.36654C41.0951 6.36654 41.6521 6.08219 41.6521 5.43449C41.6521 4.91318 41.302 4.50244 40.6337 4.50244C38.6764 4.50244 36.7828 9.00472 36.7828 9.00472H36.7192C36.8465 8.65718 37.292 7.55135 38.5332 4.50244C37.1488 5.16594 35.6053 5.22913 35.6053 5.22913V5.57667C36.2736 5.57667 36.6237 5.65566 36.6237 6.019C36.6237 6.16118 36.5441 6.44553 36.5123 6.55611L35.2234 11.09Z" />
<path fill="#132429" d="M46.1376 5.68694C46.1376 7.04552 44.0849 7.72481 43.0029 8.04076C43.337 7.10871 44.2599 5.11823 45.5966 5.11823C45.9308 5.11823 46.1376 5.32359 46.1376 5.68694ZM47.3629 5.57635C47.3629 5.05504 47.0446 4.48633 46.1376 4.48633C43.1779 4.48633 41.332 7.93018 41.332 10.1892C41.332 11.3898 42.0004 12.1007 43.2734 12.1007C45.0397 12.1007 46.1376 10.2524 46.3604 9.85747L46.1217 9.68369C45.7398 10.2366 44.7373 11.2003 43.7348 11.2003C42.9074 11.2003 42.6369 10.5999 42.6369 10.0154C42.6369 9.46253 42.7164 9.0044 42.8755 8.46729C45.8512 7.69321 47.3629 6.80856 47.3629 5.57635Z" />
<path fill="#132429" d="M49.732 11.1688C49.1751 11.1688 48.9205 10.8529 48.9205 10.1894C48.9205 8.48324 50.5595 5.13418 52.5645 5.13418C52.9623 5.13418 53.201 5.41853 53.201 5.89245C53.201 8.27787 51.1005 11.1688 49.732 11.1688ZM56.8927 0C55.5083 0.663494 53.9648 0.726683 53.9648 0.726683V1.07423C54.6331 1.07423 54.9832 1.16901 54.9832 1.51656C54.9832 1.69033 54.9036 1.94309 54.8718 2.03787L53.8852 4.89721C53.7261 4.70764 53.3442 4.48648 52.8191 4.48648C50.0503 4.48648 47.6793 7.93033 47.6793 10.4895C47.6793 11.5637 48.1885 12.1009 49.1592 12.1009C50.8141 12.1009 51.9598 10.2999 52.4213 9.39949H52.4849C52.294 9.93661 52.0075 10.6475 52.0075 11.2004C52.0075 11.9429 52.294 12.1167 52.7873 12.1167C53.9648 12.1167 54.9514 10.6475 55.4447 9.71544L55.206 9.54167C54.8559 10.0314 54.1239 11.0582 53.5192 11.0582C53.2965 11.0582 53.201 10.9318 53.201 10.7265C53.201 10.4737 53.376 9.87342 53.5988 9.25732L56.8927 0Z" />
<path fill="#132429" d="M64.7819 5.38694C65.3388 5.38694 65.5457 5.71868 65.5457 6.38218C65.5457 8.04091 64.0021 11.5164 62.0131 11.5164C61.4561 11.5164 61.1856 11.2478 61.1856 10.6001C61.1856 8.7202 63.4611 5.38694 64.7819 5.38694ZM64.8137 0C63.4293 0.663494 61.8858 0.726683 61.8858 0.726683V1.07423C62.5541 1.07423 62.9042 1.16901 62.9042 1.51656C62.9042 1.69033 62.8246 1.94309 62.7928 2.03787L60.4696 8.26208C60.2309 8.87818 60.0399 9.58906 60.0399 10.2526C60.0399 11.311 60.4855 12.1009 61.6789 12.1009C64.4477 12.1009 66.8505 8.64121 66.8505 6.08202C66.8505 5.03939 66.3095 4.48648 65.3388 4.48648C63.8589 4.48648 62.6655 6.2242 62.0926 7.29843H62.029L64.8137 0Z" />
<path fill="#132429" d="M74.5822 5.59215C74.5822 4.97605 74.2003 4.50213 73.5638 4.50213C73.0864 4.50213 72.6727 4.84967 72.5772 5.41838C73.0705 5.49737 73.2774 5.95549 73.2774 6.44521C73.2774 7.97757 71.8453 10.5052 70.4768 11.8006C70.4768 9.20977 70.3813 6.85595 70.3017 5.46577C70.2699 4.96025 70.1903 4.48633 69.6334 4.48633C68.2649 4.48633 67.6125 6.38202 67.517 6.99813L67.7716 7.02972C67.7875 6.98233 68.2968 5.52896 68.8855 5.52896C69.0287 5.52896 69.0606 5.67114 69.0765 5.8923C69.1242 6.41362 69.4584 9.27296 69.4584 11.2792C69.4584 11.9427 69.4425 12.4641 69.3629 12.6378C69.0128 13.3645 67.4693 14.4861 65.8303 14.4861C65.3211 14.4861 65.0824 14.2966 64.9869 13.9806C64.621 14.0754 64.2709 14.3597 64.2709 14.8495C64.2709 15.355 64.6687 15.6867 65.3052 15.6867C68.9651 15.6867 74.5822 8.45149 74.5822 5.59215Z" />
<path fill="#132429" d="M83.0283 11.8482H84.2854L84.9856 9.3522H86.9428L87.2611 8.27797H85.2879L86.0517 5.5766H88.0408L88.3431 4.50238H86.354L87.086 1.95898H85.8289L85.0969 4.50238H82.9806L83.7126 1.95898H82.4555L81.7235 4.50238H80.0208L79.7185 5.5766H81.4211L80.6573 8.27797H78.9229L78.6046 9.3522H80.355L79.6548 11.8482H80.9119L81.6121 9.3522H83.7285L83.0283 11.8482ZM82.6782 5.5766H84.7946L84.0308 8.27797H81.9144L82.6782 5.5766Z" />
<path fill="#132429" d="M89.8689 11.8483H92.3831V0.790039H89.8689V11.8483Z" />
<path fill="#132429" d="M94.5931 11.8482H97.0596V7.17214C97.0596 6.28748 97.6324 5.57659 98.4917 5.57659C99.3351 5.57659 99.8443 6.19269 99.8443 7.04576V11.8482H102.311V6.28748C102.311 4.54976 101.165 3.30176 99.3033 3.30176C98.1735 3.30176 97.3778 3.85467 97.0437 4.42338H96.9164V3.50712H94.5931V11.8482Z" />
<path fill="#132429" d="M107.608 12.0536C108.992 12.0536 109.692 11.2795 109.931 10.9003H110.058V11.8482H112.509V3.50712H110.043V4.45497H109.915C109.629 4.01264 108.865 3.30176 107.544 3.30176C105.285 3.30176 103.725 5.10267 103.725 7.72505C103.725 10.3474 105.301 12.0536 107.608 12.0536ZM108.165 9.84191C107.003 9.84191 106.223 8.97305 106.223 7.67766C106.223 6.39806 107.003 5.5134 108.149 5.5134C109.279 5.5134 110.09 6.35067 110.09 7.67766C110.09 8.90986 109.342 9.84191 108.165 9.84191Z" />
<path fill="#132429" d="M118.299 15.687C121.307 15.687 122.691 13.9335 122.691 11.7534V3.50712H120.225V4.45497H120.097C119.843 4.04424 119.063 3.30176 117.695 3.30176C115.546 3.30176 113.907 4.96049 113.907 7.63026C113.907 10.3158 115.578 11.943 117.758 11.943C119.095 11.943 119.827 11.2005 120.113 10.7898H120.241V11.7534C120.241 13.0488 119.588 13.7123 118.299 13.7123C117.217 13.7123 116.676 13.2384 116.565 12.6065H114.305C114.385 14.202 115.69 15.687 118.299 15.687ZM118.347 9.73133C117.185 9.73133 116.406 8.92566 116.406 7.63026C116.406 6.35067 117.185 5.5134 118.331 5.5134C119.461 5.5134 120.273 6.30328 120.273 7.63026C120.273 8.86247 119.525 9.73133 118.347 9.73133Z" />
<path fill="#132429" d="M128.72 12.0536C131.425 12.0536 133.255 10.1421 133.255 7.67766C133.255 5.21325 131.425 3.30176 128.736 3.30176C126.015 3.30176 124.201 5.21325 124.201 7.67766C124.201 10.1421 126.031 12.0536 128.72 12.0536ZM128.72 9.84191C127.559 9.84191 126.699 8.95725 126.699 7.67766C126.699 6.41386 127.559 5.5134 128.72 5.5134C129.898 5.5134 130.757 6.41386 130.757 7.67766C130.757 8.94145 129.898 9.84191 128.72 9.84191Z" />
<path fill="#132429" d="M139.316 1.43774C139.635 1.37455 140.001 1.32715 140.542 1.32715C143.501 1.32715 144.933 3.06487 144.933 5.59247C144.933 9.27328 142.101 11.3112 138.568 11.3112C137.693 11.3112 137.28 11.0742 137.28 10.5055C137.28 10.2685 137.359 9.93677 137.375 9.87358L139.316 1.43774ZM136.118 11.8009C137.057 11.8009 137.868 11.8483 138.775 11.8483C143.47 11.8483 146.525 9.30487 146.525 5.27652C146.525 2.81211 144.52 0.790039 140.876 0.790039C140.255 0.790039 139.221 0.837431 138.457 0.837431C137.057 0.837431 136.595 0.790039 136.595 0.790039L136.484 1.24817L136.993 1.32715C137.47 1.40614 137.725 1.51672 137.725 1.89586C137.725 2.03804 137.693 2.19601 137.661 2.35399L135.959 9.763C135.752 10.6793 135.338 11.1058 134.463 11.3112L134.129 11.3901L134.017 11.8483C134.017 11.8483 134.765 11.8009 136.118 11.8009Z" />
<path fill="#132429" d="M151.106 4.50242C149.721 5.16591 148.178 5.2291 148.178 5.2291V5.57664C148.846 5.57664 149.196 5.65563 149.196 6.01897C149.196 6.20854 149.133 6.39811 149.085 6.52449L147.923 9.76297C147.621 10.5844 147.525 11.0584 147.525 11.5007C147.525 11.9588 147.748 12.101 148.13 12.101C149.228 12.101 150.597 10.616 151.106 9.68399L150.867 9.52601C150.533 9.99994 149.403 11.0584 149.005 11.0584C148.862 11.0584 148.798 10.9952 148.798 10.8372C148.798 10.5844 148.942 10.1105 149.228 9.35224L151.106 4.50242ZM151.217 2.21178C151.742 2.21178 152.124 1.70627 152.124 1.24814C152.124 0.853202 151.854 0.568848 151.456 0.568848C150.931 0.568848 150.549 1.07437 150.549 1.53249C150.549 1.92743 150.819 2.21178 151.217 2.21178Z" />
<path fill="#132429" d="M155.496 4.94445C156.116 4.94445 156.371 5.52896 156.371 6.35043C156.371 7.36147 155.894 9.33615 154.668 9.33615C154.159 9.33615 153.825 8.89382 153.825 7.93018C153.825 6.93494 154.271 4.94445 155.496 4.94445ZM153.73 15.4182C152.393 15.4182 151.661 14.7073 151.661 13.9648C151.661 13.3803 152.043 13.1275 152.409 13.0644C152.377 12.8432 152.138 12.6378 151.772 12.6378C151.12 12.6378 150.579 13.1433 150.579 13.9648C150.579 15.1812 151.725 16.0027 153.523 16.0027C155.671 16.0027 157.119 14.9916 157.119 13.6173C157.119 12.622 156.578 11.9901 155.018 11.5478C154.111 11.2792 153.443 11.0739 153.443 10.6157C153.443 10.0944 154.08 9.87326 154.621 9.77848C156.228 9.6363 157.517 8.02496 157.517 6.33463C157.517 5.87651 157.453 5.60795 157.358 5.40258C157.644 5.48157 158.01 5.84491 158.519 5.84491C158.997 5.84491 159.235 5.56056 159.235 5.21301C159.235 4.97605 159.092 4.80228 158.965 4.70749C158.662 4.91286 158.265 5.02344 157.851 5.02344C157.628 5.02344 157.262 4.97605 157.039 4.92866C156.673 4.59691 156.355 4.48633 155.846 4.48633C154.111 4.48633 152.679 6.30304 152.679 8.04076C152.679 8.97281 153.157 9.52572 153.809 9.71529C153.141 9.81007 152.361 10.2366 152.361 11.0739C152.361 12.0375 153.411 12.3377 154.43 12.6378C155.512 12.9538 155.973 13.2381 155.973 13.9332C155.973 14.5809 155.416 15.4182 153.73 15.4182Z" />
<path fill="#132429" d="M162.639 4.50242C161.254 5.16591 159.711 5.2291 159.711 5.2291V5.57664C160.379 5.57664 160.729 5.65563 160.729 6.01897C160.729 6.20854 160.666 6.39811 160.618 6.52449L159.456 9.76297C159.154 10.5844 159.058 11.0584 159.058 11.5007C159.058 11.9588 159.281 12.101 159.663 12.101C160.761 12.101 162.13 10.616 162.639 9.68399L162.4 9.52601C162.066 9.99994 160.936 11.0584 160.538 11.0584C160.395 11.0584 160.331 10.9952 160.331 10.8372C160.331 10.5844 160.475 10.1105 160.761 9.35224L162.639 4.50242ZM162.75 2.21178C163.275 2.21178 163.657 1.70627 163.657 1.24814C163.657 0.853202 163.387 0.568848 162.989 0.568848C162.464 0.568848 162.082 1.07437 162.082 1.53249C162.082 1.92743 162.352 2.21178 162.75 2.21178Z" />
<path fill="#132429" d="M167.713 2.79633C167.649 2.73314 167.411 2.62256 167.172 2.62256C166.647 2.62256 166.265 2.89112 166.042 3.52301L165.629 4.64463L164.562 4.8658L164.515 5.32393L165.374 5.35552L163.815 9.79461C163.624 10.3317 163.56 10.7741 163.56 11.1216C163.56 11.7535 163.846 12.101 164.387 12.101C165.549 12.101 166.854 10.2053 167.331 9.28909L167.061 9.13112C166.552 9.8736 165.692 10.9004 165.135 10.9004C164.992 10.9004 164.865 10.8214 164.865 10.6003C164.865 10.2369 165.103 9.49446 165.565 8.26225L166.631 5.38712H168.604L168.891 4.69203H166.87C166.87 4.69203 167.347 3.15967 167.713 2.79633Z" />
<path fill="#132429" d="M174.029 11.0584C173.806 11.0584 173.726 10.932 173.726 10.7108C173.726 9.16269 175.445 5.29232 175.922 4.7394C175.779 4.61302 175.572 4.50244 175.318 4.50244C174.777 4.50244 174.474 5.15014 174.395 5.4029C174.124 5.18173 173.79 4.91318 173.169 4.91318C170.798 4.91318 168.618 7.75672 168.618 10.3159C168.618 11.3427 169.048 12.1168 170.019 12.1168C171.642 12.1168 172.501 10.3475 172.963 9.39966H173.026C172.867 9.81039 172.549 10.5213 172.549 11.2164C172.549 11.8799 172.883 12.1168 173.376 12.1168C174.49 12.1168 175.381 10.6477 175.747 9.79459L175.509 9.63662C175.111 10.2843 174.57 11.0584 174.029 11.0584ZM170.607 11.1848C170.035 11.1848 169.86 10.8214 169.86 9.99996C169.86 7.93049 171.196 5.51348 172.851 5.51348C173.36 5.51348 173.726 5.76624 173.917 6.22437C173.472 7.8515 171.944 11.1848 170.607 11.1848Z" />
<path fill="#132429" d="M181.665 0C180.281 0.663494 178.737 0.726683 178.737 0.726683V1.07423C179.405 1.07423 179.755 1.16901 179.755 1.51656C179.755 1.69033 179.676 1.94309 179.644 2.03787L177.003 9.77863C176.828 10.3157 176.732 10.7423 176.732 11.0582C176.732 11.8481 177.178 12.1009 177.655 12.1009C178.833 12.1009 179.819 10.6159 180.312 9.69965L180.074 9.52587C179.724 10.0314 179.039 10.995 178.387 10.995C178.164 10.995 178.069 10.8845 178.069 10.6633C178.069 10.3631 178.196 9.9682 178.451 9.24152L181.665 0Z" />
</svg>
