<svg width="29" height="29" viewBox="0 0 29 29" fill="none" xmlns="http://www.w3.org/2000/svg">
	<path fill="white" d="M14.3911 28.5525H14.3852C11.9967 28.5517 9.6498 27.9524 7.56535 26.8155L0 28.8L2.02462 21.4048C0.775734 19.2405 0.118579 16.7855 0.11965 14.2702C0.122781 6.40169 6.52482 0 14.3909 0C18.2086 0.00164768 21.7918 1.48786 24.4862 4.18541C27.1806 6.88282 28.6637 10.4683 28.6621 14.2815C28.659 22.1483 22.2595 28.5493 14.3911 28.5525ZM7.91587 24.2319L8.349 24.489C10.1702 25.5697 12.2578 26.1415 14.3863 26.1423H14.3911C20.9288 26.1423 26.2499 20.8211 26.2525 14.2807C26.2538 11.1112 25.0212 8.13108 22.7817 5.88899C20.5422 3.64689 17.564 2.41153 14.3957 2.41044C7.85293 2.41044 2.53177 7.73111 2.52918 14.2711C2.52826 16.5124 3.15537 18.6951 4.34274 20.5836L4.62477 21.0324L3.42649 25.4095L7.91587 24.2319ZM21.5808 17.6751C21.4917 17.5264 21.254 17.4371 20.8974 17.2586C20.5408 17.0801 18.7877 16.2176 18.4607 16.0985C18.1339 15.9795 17.8961 15.9201 17.6584 16.2769C17.4208 16.6339 16.7374 17.4371 16.5294 17.6751C16.3213 17.913 16.1133 17.9429 15.7569 17.7644C15.4003 17.5859 14.2513 17.2094 12.8892 15.9945C11.8292 15.0489 11.1135 13.8813 10.9055 13.5243C10.6975 13.1673 10.8833 12.9743 11.0619 12.7965C11.2223 12.6367 11.4185 12.3799 11.5968 12.1718C11.775 11.9636 11.8345 11.8148 11.9533 11.577C12.0722 11.3389 12.0128 11.1307 11.9236 10.9522C11.8345 10.7737 11.1213 9.0185 10.8242 8.3045C10.5347 7.60918 10.2407 7.70337 10.0219 7.69239C9.81412 7.68195 9.57614 7.67975 9.33844 7.67975C9.10074 7.67975 8.71439 7.769 8.38755 8.126C8.0607 8.483 7.13952 9.34571 7.13952 11.1008C7.13952 12.856 8.41725 14.5516 8.59555 14.7895C8.77383 15.0276 11.11 18.6293 14.6871 20.1739C15.5379 20.5413 16.202 20.7607 16.7199 20.925C17.5741 21.1965 18.3516 21.1582 18.9659 21.0663C19.6511 20.964 21.0756 20.2038 21.3729 19.3709C21.6699 18.5378 21.6699 17.8238 21.5808 17.6751Z"/>
</svg>
