<svg width="26" height="26" viewBox="0 0 26 26" fill="none" xmlns="http://www.w3.org/2000/svg">
<path fill="#132429" d="M13.0012 0C9.4706 0 9.02751 0.0154377 7.64083 0.0785419C6.25686 0.141917 5.31218 0.361021 4.48559 0.682501C3.63056 1.01454 2.90526 1.45871 2.18267 2.18156C1.45954 2.90415 1.01537 3.62944 0.682237 4.48419C0.359942 5.31104 0.140564 6.25598 0.0782716 7.6394C0.0162502 9.02606 0 9.46942 0 13C0 16.5306 0.0157087 16.9723 0.0785428 18.359C0.142189 19.7429 0.361296 20.6876 0.682508 21.5142C1.01482 22.3692 1.45899 23.0945 2.18186 23.8171C2.90418 24.5402 3.62948 24.9855 4.48396 25.3175C5.3111 25.639 6.25605 25.8581 7.63975 25.9215C9.02643 25.9846 9.46924 26 12.9996 26C16.5305 26 16.9722 25.9846 18.3589 25.9215C19.7429 25.8581 20.6886 25.639 21.5158 25.3175C22.3705 24.9855 23.0947 24.5402 23.8171 23.8171C24.5402 23.0945 24.9844 22.3692 25.3175 21.5145C25.6371 20.6876 25.8565 19.7427 25.9215 18.3593C25.9838 16.9726 26 16.5306 26 13C26 9.46942 25.9838 9.02633 25.9215 7.63967C25.8565 6.25571 25.6371 5.31104 25.3175 4.48446C24.9844 3.62944 24.5402 2.90415 23.8171 2.18156C23.0939 1.45844 22.3708 1.01427 21.515 0.682501C20.6862 0.361021 19.741 0.141917 18.357 0.0785419C16.9703 0.0154377 16.5289 0 12.9972 0H13.0012ZM11.835 2.34108C11.835 2.34198 11.8357 2.34271 11.8366 2.34271C12.1823 2.34217 12.568 2.34271 13.0012 2.34271C16.4723 2.34271 16.8837 2.35517 18.2544 2.41746C19.5219 2.47542 20.2098 2.68721 20.6681 2.86515C21.2747 3.10077 21.7072 3.38244 22.162 3.83744C22.617 4.29244 22.8987 4.72577 23.1348 5.33244C23.3128 5.79015 23.5248 6.47806 23.5825 7.74556C23.6448 9.11598 23.6584 9.52765 23.6584 12.997C23.6584 16.4664 23.6448 16.8781 23.5825 18.2485C23.5246 19.516 23.3128 20.2039 23.1348 20.6616C22.8992 21.2683 22.617 21.7003 22.162 22.155C21.707 22.61 21.275 22.8916 20.6681 23.1273C20.2103 23.306 19.5219 23.5173 18.2544 23.5752C16.8839 23.6375 16.4723 23.6511 13.0012 23.6511C9.52991 23.6511 9.11851 23.6375 7.74808 23.5752C6.48057 23.5167 5.79264 23.3049 5.33412 23.127C4.72745 22.8914 4.29411 22.6097 3.8391 22.1547C3.3841 21.6997 3.10243 21.2675 2.86626 20.6605C2.68832 20.2028 2.47626 19.5149 2.41857 18.2474C2.35627 16.877 2.34382 16.4653 2.34382 12.9938C2.34382 9.52223 2.35627 9.11273 2.41857 7.74231C2.47653 6.47481 2.68832 5.7869 2.86626 5.32865C3.10189 4.72198 3.3841 4.28865 3.8391 3.83365C4.29411 3.37865 4.72745 3.09698 5.33412 2.86081C5.79237 2.68206 6.48057 2.47081 7.74808 2.41258C8.94707 2.35843 9.41188 2.34217 11.8333 2.33946C11.8342 2.33946 11.835 2.34019 11.835 2.34108ZM19.9406 4.50125C19.0793 4.50125 18.3806 5.19919 18.3806 6.06071C18.3806 6.92196 19.0793 7.62071 19.9406 7.62071C20.8018 7.62071 21.5006 6.92196 21.5006 6.06071C21.5006 5.19946 20.8018 4.50125 19.9406 4.50125ZM13.0012 6.32396C9.31433 6.32396 6.32511 9.31315 6.32511 13C6.32511 16.6869 9.31433 19.6747 13.0012 19.6747C16.6881 19.6747 19.6762 16.6869 19.6762 13C19.6762 9.31315 16.6881 6.32396 13.0012 6.32396ZM13.0012 8.66667C15.3943 8.66667 17.3346 10.6066 17.3346 13C17.3346 15.3931 15.3943 17.3333 13.0012 17.3333C10.6078 17.3333 8.66784 15.3931 8.66784 13C8.66784 10.6066 10.6078 8.66667 13.0012 8.66667Z" />
</svg>
