<svg width="32" height="29" viewBox="0 0 32 29" fill="none" xmlns="http://www.w3.org/2000/svg">
<path fill="#EEE5E5" d="M30.942 28.6191C30.801 28.8401 30.5669 28.9655 30.2397 28.9954C29.9123 29.0253 29.6185 28.9098 29.3583 28.6489L25.9173 25.1973H9.12401C8.28772 25.1973 7.57175 24.8986 6.97612 24.3013C6.38049 23.7042 6.08267 22.9861 6.08267 22.1471V21.0863H24.7935C25.6479 21.0863 26.3793 20.7812 26.9878 20.1709C27.5964 19.5606 27.9006 18.8268 27.9006 17.9697V6.03415H28.9587C29.795 6.03415 30.5109 6.33284 31.1066 6.93022C31.7022 7.5276 32 8.24567 32 9.08442V27.5317C32 27.8498 31.8941 28.1105 31.6824 28.314C31.471 28.5174 31.2242 28.6191 30.942 28.6191ZM1.54839 21.557C1.14872 21.557 0.790739 21.4112 0.474443 21.1195C0.158148 20.8276 0 20.4427 0 19.9649V3.11664C0 2.2595 0.304262 1.52578 0.912787 0.915467C1.52131 0.305155 2.25289 0 3.10752 0H21.3555C22.2099 0 22.9413 0.305155 23.5498 0.915467C24.1584 1.52578 24.4626 2.2595 24.4626 3.11664V14.5216C24.4626 15.3788 24.1584 16.1125 23.5498 16.7228C22.9413 17.3331 22.2099 17.6383 21.3555 17.6383H6.08267L2.64167 21.0898C2.48066 21.251 2.30818 21.3692 2.12425 21.4445C1.94003 21.5195 1.74808 21.557 1.54839 21.557Z" />
</svg>
