<svg width="41" height="30" viewBox="0 0 41 30" fill="none" xmlns="http://www.w3.org/2000/svg">
<path fill="#6C72CC" d="M0.768673 11.3412C0.227755 10.7788 -0.0276786 10.0993 0.00237245 9.30257C0.0324235 8.50588 0.347959 7.85759 0.94898 7.3577C2.30128 6.23296 3.72119 5.20975 5.20871 4.28809C6.69624 3.36642 8.2664 2.59316 9.91921 1.9683C11.572 1.34344 13.2549 0.86699 14.9678 0.53894C16.6807 0.21089 18.4086 0.0312429 20.1516 0C20.8728 0 21.4663 0.288997 21.9321 0.86699C22.3979 1.44498 22.5857 2.12452 22.4956 2.90559C22.4054 3.68666 22.0748 4.32714 21.5039 4.82703C20.9329 5.32691 20.2568 5.59248 19.4754 5.62372C18.1832 5.68621 16.9136 5.85023 15.6665 6.1158C14.4193 6.38136 13.1948 6.73284 11.9927 7.17025C10.6404 7.67013 9.35575 8.27937 8.13869 8.99796C6.92162 9.71654 5.77217 10.5289 4.69033 11.4349C4.08931 11.9348 3.41316 12.1769 2.66189 12.1613C1.91061 12.1457 1.27954 11.8723 0.768673 11.3412ZM12.3533 19.5424C11.542 20.1673 10.7682 20.386 10.0319 20.1985C9.29565 20.0111 8.71717 19.6518 8.29645 19.1207C7.87574 18.5895 7.66538 17.9647 7.66538 17.2461C7.66538 16.5275 7.96589 15.9183 8.56691 15.4184C9.52855 14.6373 10.5578 13.9734 11.6547 13.4266C12.7515 12.8799 13.8709 12.4347 15.0129 12.091C15.8543 11.8411 16.5605 11.927 17.1315 12.3488C17.7024 12.7705 18.0931 13.3095 18.3034 13.9656C18.5138 14.6217 18.4913 15.2934 18.2358 15.9807C17.9804 16.6681 17.4169 17.1524 16.5455 17.4335C15.7942 17.6835 15.0654 17.9803 14.3592 18.324C13.653 18.6676 12.9844 19.0738 12.3533 19.5424ZM19.2501 29.712C18.2884 29.3683 17.5822 28.7044 17.1315 27.7203C16.6807 26.7361 16.6657 25.8066 17.0864 24.9318L27.9047 2.06203C28.0249 1.81209 28.1977 1.64806 28.4231 1.56996C28.6485 1.49185 28.8964 1.49966 29.1669 1.59339C29.4073 1.68712 29.5876 1.85114 29.7078 2.08546C29.828 2.31979 29.8581 2.56192 29.798 2.81186L23.938 27.4625C23.6976 28.4623 23.1041 29.1887 22.1575 29.6417C21.2109 30.0947 20.2417 30.1182 19.2501 29.712ZM40.3008 11.1537C39.85 11.6848 39.264 12.0207 38.5428 12.1613C37.8216 12.3019 37.0703 12.0441 36.289 11.388C36.0486 11.1381 35.7556 10.896 35.41 10.6616C35.0644 10.4273 34.7564 10.2164 34.4859 10.029C33.6745 9.4666 33.2238 8.8105 33.1336 8.06067C33.0435 7.31084 33.1637 6.63912 33.4942 6.0455C33.8248 5.45189 34.3131 5.03011 34.9592 4.78016C35.6053 4.53022 36.274 4.62395 36.9651 5.06135C37.476 5.40502 38.0094 5.78775 38.5653 6.20953C39.1213 6.63131 39.6246 7.02965 40.0754 7.40457C40.7065 7.9357 41.0145 8.56055 40.9995 9.27914C40.9845 9.99773 40.7516 10.6226 40.3008 11.1537ZM34.531 21.1827C34.0502 21.6826 33.4567 21.9794 32.7505 22.0731C32.0443 22.1668 31.3456 21.9013 30.6544 21.2764L30.4065 21.0187C30.3013 20.9093 30.2036 20.8234 30.1135 20.7609C29.3923 20.136 29.0317 19.4487 29.0317 18.6989C29.0317 17.949 29.242 17.2929 29.6627 16.7306C30.0834 16.1682 30.6544 15.8011 31.3756 15.6293C32.0969 15.4574 32.8031 15.6683 33.4942 16.2619C33.6445 16.4181 33.8173 16.5822 34.0126 16.754C34.2079 16.9258 34.3807 17.0899 34.531 17.2461C35.132 17.8709 35.4025 18.5583 35.3424 19.3081C35.2823 20.0579 35.0118 20.6828 34.531 21.1827Z" />
</svg>
