<svg width="19" height="19" viewBox="0 0 19 19" fill="none" xmlns="http://www.w3.org/2000/svg">
<path fill="#FF4157" d="M1.502 18.961C1.07967 18.961 0.72375 18.8162 0.43425 18.5267C0.14475 18.2372 0 17.8766 0 17.4447V13.2957C0 12.8812 0.115 12.537 0.345 12.263C0.575167 11.9892 0.905833 11.7907 1.337 11.6675L4.40525 11.0097C4.77992 10.9387 5.13525 10.9502 5.47125 11.044C5.80708 11.1378 6.10183 11.3068 6.3555 11.551L8.80425 13.9577C9.30575 13.6664 9.79275 13.3328 10.2653 12.957C10.7376 12.5813 11.2086 12.1587 11.6782 11.6892C12.1906 11.1936 12.6477 10.6959 13.0495 10.1962C13.4512 9.69658 13.7998 9.19025 14.0955 8.67725L11.5858 6.34025C11.3394 6.12208 11.1748 5.86958 11.0918 5.58275C11.0088 5.29575 11.0027 4.94825 11.0737 4.54025L11.7098 1.337C11.7996 0.9225 11.9927 0.596083 12.289 0.35775C12.5855 0.11925 12.9588 0 13.4088 0H17.4445C17.8763 0 18.2347 0.14475 18.5195 0.43425C18.8043 0.72375 18.9468 1.08442 18.9468 1.51625C18.9468 3.65625 18.4808 5.7735 17.549 7.868C16.617 9.9625 15.2894 11.8714 13.5663 13.5947C11.8431 15.3084 9.93658 16.6313 7.84675 17.5632C5.75692 18.4951 3.642 18.961 1.502 18.961Z"/>
</svg>
