<svg width="26" height="33" viewBox="0 0 26 33" fill="none" xmlns="http://www.w3.org/2000/svg">
<path fill="#DCAF27" d="M13 33C12.6577 33 12.3299 32.9488 12.0168 32.8463C11.7033 32.7441 11.4045 32.5906 11.1202 32.3857L1.2532 25.1362C0.864355 24.8574 0.558278 24.4993 0.334966 24.0617C0.111655 23.6242 0 23.1637 0 22.6803V3.06986C0 2.212 0.303333 1.48589 0.91 0.891536C1.51667 0.297179 2.25781 0 3.13343 0H22.8666C23.7422 0 24.4833 0.297179 25.09 0.891536C25.6967 1.48589 26 2.212 26 3.06986V22.6803C26 23.1637 25.8883 23.6242 25.665 24.0617C25.4417 24.4993 25.1356 24.8574 24.7468 25.1362L14.8798 32.3857C14.5955 32.5906 14.2967 32.7441 13.9832 32.8463C13.6701 32.9488 13.3423 33 13 33ZM11.18 17.008L8.4201 14.3036C8.16212 14.0512 7.86038 13.9266 7.51487 13.93C7.16936 13.9332 6.86212 14.0577 6.59317 14.3036C6.3245 14.5671 6.18569 14.8698 6.17673 15.2117C6.16778 15.5533 6.29778 15.8559 6.56673 16.1194L10.0832 19.565C10.3967 19.8718 10.7623 20.0252 11.18 20.0252C11.5977 20.0252 11.9633 19.8718 12.2768 19.565L19.4601 12.5274C19.7178 12.2746 19.8449 11.979 19.8415 11.6405C19.8383 11.302 19.7112 11.001 19.4601 10.7375C19.1912 10.4743 18.8822 10.3383 18.5332 10.3295C18.1845 10.3207 17.8757 10.4481 17.6068 10.7116L11.18 17.008Z" />
</svg>
