<svg width="32" height="32" viewBox="0 0 32 32" fill="none" xmlns="http://www.w3.org/2000/svg">
<path fill="#DCAF27" d="M17.2664 14.7456V0C21.2515 0.316369 24.6172 1.85597 27.3637 4.61881C30.1101 7.38165 31.6556 10.7572 32 14.7456H17.2664ZM14.7434 32C10.5796 31.6836 7.08137 29.9946 4.24882 26.933C1.41627 23.8714 0 20.2341 0 16.0213C0 11.7801 1.41627 8.12863 4.24882 5.067C7.08137 2.00537 10.5796 0.316369 14.7434 0V32ZM17.2664 32V17.2706H32C31.6904 21.2481 30.1537 24.6227 27.39 27.3944C24.626 30.166 21.2515 31.7012 17.2664 32Z" />
</svg>
