<svg width="22" height="18" viewBox="0 0 22 18" fill="none" xmlns="http://www.w3.org/2000/svg">
<path fill="#FF4157" d="M12.5142 17.2C12.336 17.4667 12.1134 17.6667 11.8462 17.8C11.5789 17.9333 11.2969 18 11 18C10.7031 18 10.4211 17.9333 10.1538 17.8C9.88664 17.6667 9.66397 17.4667 9.48583 17.2L0.267206 2.71111C0.178137 2.56297 0.111335 2.40741 0.0668009 2.24445C0.0222665 2.08148 -7.0262e-07 1.92593 -7.09096e-07 1.77778C-7.29818e-07 1.30371 0.170715 0.888891 0.512145 0.533337C0.853575 0.17778 1.27665 1.85154e-06 1.78138 1.82948e-06L20.2186 1.02356e-06C20.7233 1.0015e-06 21.1464 0.177779 21.4879 0.533336C21.8293 0.88889 22 1.3037 22 1.77778C22 1.92593 21.9777 2.08148 21.9332 2.24445C21.8887 2.40741 21.8219 2.56296 21.7328 2.71111L12.5142 17.2Z"/>
</svg>
