<svg width="21" height="17" viewBox="0 0 21 17" fill="none" xmlns="http://www.w3.org/2000/svg">
<path fill="#FF4157" d="M2.65 16.961C1.91167 16.961 1.28542 16.7039 0.77125 16.1897C0.257083 15.6756 0 15.0493 0 14.311V2.65C0 1.91167 0.257083 1.28542 0.77125 0.771249C1.28542 0.257083 1.91167 0 2.65 0H18.311C19.0493 0 19.6756 0.257083 20.1897 0.771249C20.7039 1.28542 20.961 1.91167 20.961 2.65V14.311C20.961 15.0493 20.7039 15.6756 20.1897 16.1897C19.6756 16.7039 19.0493 16.961 18.311 16.961H2.65ZM10.4805 9.8425C10.6015 9.8425 10.722 9.82525 10.842 9.79075C10.9618 9.75642 11.0776 9.70483 11.1892 9.636L17.8263 5.39475C17.9689 5.31142 18.0853 5.19308 18.1755 5.03975C18.2658 4.88658 18.311 4.71608 18.311 4.52825C18.311 4.13842 18.1387 3.839 17.794 3.63C17.4495 3.421 17.0942 3.43167 16.7283 3.662L10.4805 7.65L4.23275 3.662C3.87625 3.441 3.52333 3.42975 3.174 3.62825C2.82467 3.82692 2.65 4.12692 2.65 4.52825C2.65 4.73275 2.69517 4.90925 2.7855 5.05775C2.87567 5.20625 2.99208 5.31858 3.13475 5.39475L9.77175 9.636C9.88342 9.70483 9.99917 9.75642 10.119 9.79075C10.239 9.82525 10.3595 9.8425 10.4805 9.8425Z"/>
</svg>
