<svg width="32" height="32" viewBox="0 0 32 32" fill="none" xmlns="http://www.w3.org/2000/svg">
<path fill="#EEE5E5" d="M16.0029 32C13.7899 32 11.7098 31.5801 9.76253 30.7402C7.8153 29.9004 6.12154 28.7606 4.68126 27.3208C3.24098 25.8811 2.10063 24.1881 1.26021 22.2417C0.42007 20.2953 0 18.2157 0 16.0029C0 13.7899 0.41993 11.7098 1.25979 9.76253C2.09965 7.8153 3.23944 6.12154 4.67916 4.68126C6.11888 3.24098 7.81193 2.10063 9.75832 1.26021C11.7047 0.42007 13.7843 0 15.9971 0C18.2101 0 20.2902 0.419929 22.2375 1.25979C24.1847 2.09965 25.8785 3.23944 27.3187 4.67916C28.759 6.11888 29.8994 7.81193 30.7398 9.75832C31.5799 11.7047 32 13.7843 32 15.9971C32 18.2101 31.5801 20.2902 30.7402 22.2375C29.9004 24.1847 28.7606 25.8785 27.3208 27.3187C25.8811 28.759 24.1881 29.8994 22.2417 30.7398C20.2953 31.5799 18.2157 32 16.0029 32ZM14.3158 29.3895V26.1053C13.3895 26.1053 12.5965 25.7754 11.9368 25.1158C11.2772 24.4561 10.9474 23.6632 10.9474 22.7368V21.0526L2.86316 12.9684C2.77895 13.4737 2.70175 13.9789 2.63158 14.4842C2.5614 14.9895 2.52632 15.4947 2.52632 16C2.52632 19.3965 3.64211 22.3719 5.87368 24.9263C8.10526 27.4807 10.9193 28.9684 14.3158 29.3895ZM25.9368 25.0947C27.0877 23.8316 27.9649 22.4211 28.5684 20.8632C29.1719 19.3053 29.4737 17.6822 29.4737 15.9941C29.4737 13.2365 28.7114 10.7182 27.1869 8.43916C25.6625 6.15986 23.6177 4.51495 21.0526 3.50442V4.21053C21.0526 5.13684 20.7228 5.92982 20.0632 6.58947C19.4035 7.24912 18.6105 7.57895 17.6842 7.57895H14.3158V10.9474C14.3158 11.4246 14.1544 11.8246 13.8316 12.1474C13.5088 12.4702 13.1088 12.6316 12.6316 12.6316H9.26316V16H19.3684C19.8456 16 20.2456 16.1614 20.5684 16.4842C20.8912 16.807 21.0526 17.207 21.0526 17.6842V22.7368H22.7368C23.4667 22.7368 24.1263 22.9544 24.7158 23.3895C25.3053 23.8246 25.7123 24.393 25.9368 25.0947Z" />
</svg>
