<svg width="26" height="25" viewBox="0 0 26 25" fill="none" xmlns="http://www.w3.org/2000/svg">
<path fill="#132429" d="M5.76058 7.87793V24.2196H0.321655V7.87793H5.76058Z" />
<path fill="#132429" d="M6.11876 2.8227C6.11876 4.3918 4.93765 5.64735 3.04119 5.64735H3.00643C1.18046 5.64735 0 4.3918 0 2.8227C0 1.2204 1.21641 0 3.07703 0C4.93765 0 6.08346 1.2204 6.11876 2.8227Z" />
<path fill="#132429" d="M25.3754 14.8497L25.3752 24.2196H19.9365V15.4768C19.9365 13.2808 19.1494 11.7823 17.1805 11.7823C15.6779 11.7823 14.7829 12.7925 14.3898 13.7682C14.246 14.1179 14.2107 14.6051 14.2107 15.0935V24.22H8.77112C8.77112 24.22 8.84281 9.41173 8.77112 7.87831H14.2107V10.193C14.9326 9.08027 16.2254 7.49414 19.1132 7.49414C22.6922 7.49414 25.3754 9.83028 25.3754 14.8497Z" />
</svg>
